{
  "accessors": [
    {
      "bufferView": 2,
      "componentType": 5126,
      "count": 4391,
      "max": [
        159.64224243164063,
        384.1263122558594,
        35.496864318847656
      ],
      "min": [
        -159.64227294921875,
        34.53124237060547,
        -38.90890121459961
      ],
      "type": "VEC3"
    },
    {
      "bufferView": 2,
      "byteOffset": 52692,
      "componentType": 5126,
      "count": 4391,
      "max": [
        0.9998318552970886,
        0.9768005013465881,
        0.9998549818992615
      ],
      "min": [
        -0.9998317360877991,
        -0.9992609620094299,
        -0.9999074935913086
      ],
      "type": "VEC3"
    },
    {
      "bufferView": 3,
      "componentType": 5126,
      "count": 4391,
      "max": [
        1.0,
        0.9999183416366577,
        0.9956425428390503,
        1.0
      ],
      "min": [
        -0.9928174018859863,
        -0.9997801780700684,
        -0.9989553689956665,
        1.0
      ],
      "type": "VEC4"
    },
    {
      "bufferView": 1,
      "componentType": 5126,
      "count": 4391,
      "max": [
        0.9998024702072144,
        0.7668758630752563
      ],
      "min": [
        0.00019759412680286914,
        0.00019759412680286914
      ],
      "type": "VEC2"
    },
    {
      "bufferView": 0,
      "componentType": 5125,
      "count": 24312,
      "type": "SCALAR"
    },
    {
      "bufferView": 2,
      "byteOffset": 105384,
      "componentType": 5126,
      "count": 6699,
      "max": [
        64.16874694824219,
        420.2516784667969,
        45.79450607299805
      ],
      "min": [
        -64.16944885253906,
        239.52354431152344,
        -50.16650390625
      ],
      "type": "VEC3"
    },
    {
      "bufferView": 2,
      "byteOffset": 185772,
      "componentType": 5126,
      "count": 6699,
      "max": [
        0.9988500475883484,
        0.997441291809082,
        0.9999661445617676
      ],
      "min": [
        -0.9988497495651245,
        -0.999031126499176,
        -0.9999644756317139
      ],
      "type": "VEC3"
    },
    {
      "bufferView": 3,
      "byteOffset": 70256,
      "componentType": 5126,
      "count": 6699,
      "max": [
        0.9999995231628418,
        0.999923586845398,
        0.999823808670044,
        1.0
      ],
      "min": [
        -0.9999979138374329,
        -0.9998956918716431,
        -0.9995536208152771,
        -1.0
      ],
      "type": "VEC4"
    },
    {
      "bufferView": 1,
      "byteOffset": 35128,
      "componentType": 5126,
      "count": 6699,
      "max": [
        0.9895762801170349,
        0.9995808005332947
      ],
      "min": [
        0.00041926230187527835,
        0.00041926230187527835
      ],
      "type": "VEC2"
    },
    {
      "bufferView": 0,
      "byteOffset": 97248,
      "componentType": 5125,
      "count": 33492,
      "type": "SCALAR"
    },
    {
      "bufferView": 2,
      "byteOffset": 266160,
      "componentType": 5126,
      "count": 8555,
      "max": [
        57.330360412597656,
        380.45733642578125,
        48.00306701660156
      ],
      "min": [
        -57.330596923828125,
        249.4825897216797,
        -47.33203125
      ],
      "type": "VEC3"
    },
    {
      "bufferView": 2,
      "byteOffset": 368820,
      "componentType": 5126,
      "count": 8555,
      "max": [
        0.9996579885482788,
        0.9995492100715637,
        0.9999963641166687
      ],
      "min": [
        -0.998607873916626,
        -0.9999699592590332,
        -0.9999609589576721
      ],
      "type": "VEC3"
    },
    {
      "bufferView": 3,
      "byteOffset": 177440,
      "componentType": 5126,
      "count": 8555,
      "max": [
        0.9993553757667542,
        0.9999807476997375,
        0.9991318583488464,
        1.0
      ],
      "min": [
        -0.9999399185180664,
        -0.9999987483024597,
        -0.9992798566818237,
        -1.0
      ],
      "type": "VEC4"
    },
    {
      "bufferView": 1,
      "byteOffset": 88720,
      "componentType": 5126,
      "count": 8555,
      "max": [
        0.9994421005249023,
        0.9870023131370544
      ],
      "min": [
        0.0005579286371357739,
        0.0005579286371357739
      ],
      "type": "VEC2"
    },
    {
      "bufferView": 0,
      "byteOffset": 231216,
      "componentType": 5125,
      "count": 45696,
      "type": "SCALAR"
    },
    {
      "bufferView": 2,
      "byteOffset": 471480,
      "componentType": 5126,
      "count": 8643,
      "max": [
        165.45144653320313,
        385.9259338378906,
        26.569190979003906
      ],
      "min": [
        -165.4514617919922,
        278.2398986816406,
        -36.283721923828125
      ],
      "type": "VEC3"
    },
    {
      "bufferView": 2,
      "byteOffset": 575196,
      "componentType": 5126,
      "count": 8643,
      "max": [
        0.9997023940086365,
        0.9997299909591675,
        0.9998724460601807
      ],
      "min": [
        -0.9996687173843384,
        -0.9999793767929077,
        -0.9996213912963867
      ],
      "type": "VEC3"
    },
    {
      "bufferView": 3,
      "byteOffset": 314320,
      "componentType": 5126,
      "count": 8643,
      "max": [
        0.9999039769172668,
        0.9999355673789978,
        0.9998121857643127,
        1.0
      ],
      "min": [
        -0.999267578125,
        -0.9999486804008484,
        -0.9998778700828552,
        -1.0
      ],
      "type": "VEC4"
    },
    {
      "bufferView": 1,
      "byteOffset": 157160,
      "componentType": 5126,
      "count": 8643,
      "max": [
        0.9432402849197388,
        0.9995515942573547
      ],
      "min": [
        0.00044842774514108896,
        0.00044845714000985026
      ],
      "type": "VEC2"
    },
    {
      "bufferView": 0,
      "byteOffset": 414000,
      "componentType": 5125,
      "count": 45120,
      "type": "SCALAR"
    },
    {
      "bufferView": 2,
      "byteOffset": 678912,
      "componentType": 5126,
      "count": 4580,
      "max": [
        69.88784790039063,
        367.1294250488281,
        48.59777069091797
      ],
      "min": [
        -69.88726043701172,
        42.15071487426758,
        -41.505306243896484
      ],
      "type": "VEC3"
    },
    {
      "bufferView": 2,
      "byteOffset": 733872,
      "componentType": 5126,
      "count": 4580,
      "max": [
        0.9998621940612793,
        0.9890993237495422,
        0.9999992251396179
      ],
      "min": [
        -0.999861478805542,
        -0.8435301184654236,
        -1.0
      ],
      "type": "VEC3"
    },
    {
      "bufferView": 3,
      "byteOffset": 452608,
      "componentType": 5126,
      "count": 4580,
      "max": [
        1.0,
        1.0,
        0.9000682234764099,
        1.0
      ],
      "min": [
        -0.9874314069747925,
        -0.9999986886978149,
        -0.8604474663734436,
        -1.0
      ],
      "type": "VEC4"
    },
    {
      "bufferView": 1,
      "byteOffset": 226304,
      "componentType": 5126,
      "count": 4580,
      "max": [
        0.9626585245132446,
        0.999765157699585
      ],
      "min": [
        0.00023479419178329408,
        0.0002348236012039706
      ],
      "type": "VEC2"
    },
    {
      "bufferView": 0,
      "byteOffset": 594480,
      "componentType": 5125,
      "count": 27396,
      "type": "SCALAR"
    },
    {
      "bufferView": 2,
      "byteOffset": 788832,
      "componentType": 5126,
      "count": 6006,
      "max": [
        63.36015319824219,
        242.32785034179688,
        34.81656265258789
      ],
      "min": [
        -63.36015319824219,
        25.58768081665039,
        -42.039981842041016
      ],
      "type": "VEC3"
    },
    {
      "bufferView": 2,
      "byteOffset": 860904,
      "componentType": 5126,
      "count": 6006,
      "max": [
        0.9997863173484802,
        0.9956020712852478,
        0.9991832375526428
      ],
      "min": [
        -0.9997864961624146,
        -0.9999819397926331,
        -0.9996699690818787
      ],
      "type": "VEC3"
    },
    {
      "bufferView": 3,
      "byteOffset": 525888,
      "componentType": 5126,
      "count": 6006,
      "max": [
        0.9995092749595642,
        0.99998539686203,
        0.9996737241744995,
        1.0
      ],
      "min": [
        -0.9997518062591553,
        -0.9998989701271057,
        -0.9993215799331665,
        -1.0
      ],
      "type": "VEC4"
    },
    {
      "bufferView": 1,
      "byteOffset": 262944,
      "componentType": 5126,
      "count": 6006,
      "max": [
        0.9992314577102661,
        0.9555798768997192
      ],
      "min": [
        0.0007684523006901145,
        0.0007684523006901145
      ],
      "type": "VEC2"
    },
    {
      "bufferView": 0,
      "byteOffset": 704064,
      "componentType": 5125,
      "count": 23448,
      "type": "SCALAR"
    }
  ],
  "asset": {
    "extras": {
      "author": "Kaan Tezcan (https://sketchfab.com/kaanpirate)",
      "license": "CC-BY-4.0 (http://creativecommons.org/licenses/by/4.0/)",
      "source": "https://sketchfab.com/3d-models/free-full-body-male-armor-7c73bd8c84b6458e831ddad4df775a04",
      "title": "Free - Full Body Male Armor"
    },
    "generator": "Sketchfab-15.18.0",
    "version": "2.0"
  },
  "bufferViews": [
    {
      "buffer": 0,
      "byteLength": 797856,
      "name": "floatBufferViews",
      "target": 34963
    },
    {
      "buffer": 0,
      "byteLength": 310992,
      "byteOffset": 797856,
      "byteStride": 8,
      "name": "floatBufferViews",
      "target": 34962
    },
    {
      "buffer": 0,
      "byteLength": 932976,
      "byteOffset": 1108848,
      "byteStride": 12,
      "name": "floatBufferViews",
      "target": 34962
    },
    {
      "buffer": 0,
      "byteLength": 621984,
      "byteOffset": 2041824,
      "byteStride": 16,
      "name": "floatBufferViews",
      "target": 34962
    }
  ],
  "buffers": [
    {
      "byteLength": 2663808,
      "uri": "scene.bin"
    }
  ],
  "images": [
    {
      "uri": "textures/Cloth_baseColor.png"
    },
    {
      "uri": "textures/Cloth_metallicRoughness.png"
    },
    {
      "uri": "textures/Cloth_normal.png"
    },
    {
      "uri": "textures/ChestArmor_baseColor.png"
    },
    {
      "uri": "textures/ChestArmor_metallicRoughness.png"
    },
    {
      "uri": "textures/ChestArmor_normal.png"
    },
    {
      "uri": "textures/ChestParts_baseColor.png"
    },
    {
      "uri": "textures/ChestParts_metallicRoughness.png"
    },
    {
      "uri": "textures/ChestParts_normal.png"
    },
    {
      "uri": "textures/ArmArmor_baseColor.png"
    },
    {
      "uri": "textures/ArmArmor_metallicRoughness.png"
    },
    {
      "uri": "textures/ArmArmor_normal.png"
    },
    {
      "uri": "textures/Cloak_baseColor.png"
    },
    {
      "uri": "textures/Cloak_metallicRoughness.png"
    },
    {
      "uri": "textures/Cloak_normal.png"
    },
    {
      "uri": "textures/LegArmor_baseColor.png"
    },
    {
      "uri": "textures/LegArmor_metallicRoughness.png"
    },
    {
      "uri": "textures/LegArmor_normal.png"
    }
  ],
  "materials": [
    {
      "doubleSided": true,
      "name": "Cloth",
      "normalTexture": {
        "index": 2
      },
      "occlusionTexture": {
        "index": 1
      },
      "pbrMetallicRoughness": {
        "baseColorTexture": {
          "index": 0
        },
        "metallicRoughnessTexture": {
          "index": 1
        }
      }
    },
    {
      "doubleSided": true,
      "name": "ChestArmor",
      "normalTexture": {
        "index": 5
      },
      "occlusionTexture": {
        "index": 4
      },
      "pbrMetallicRoughness": {
        "baseColorTexture": {
          "index": 3
        },
        "metallicRoughnessTexture": {
          "index": 4
        }
      }
    },
    {
      "doubleSided": true,
      "name": "ChestParts",
      "normalTexture": {
        "index": 8
      },
      "occlusionTexture": {
        "index": 7
      },
      "pbrMetallicRoughness": {
        "baseColorTexture": {
          "index": 6
        },
        "metallicRoughnessTexture": {
          "index": 7
        }
      }
    },
    {
      "doubleSided": true,
      "name": "ArmArmor",
      "normalTexture": {
        "index": 11
      },
      "occlusionTexture": {
        "index": 10
      },
      "pbrMetallicRoughness": {
        "baseColorTexture": {
          "index": 9
        },
        "metallicRoughnessTexture": {
          "index": 10
        }
      }
    },
    {
      "alphaMode": "BLEND",
      "doubleSided": true,
      "name": "Cloak",
      "normalTexture": {
        "index": 14
      },
      "occlusionTexture": {
        "index": 13
      },
      "pbrMetallicRoughness": {
        "baseColorTexture": {
          "index": 12
        },
        "metallicRoughnessTexture": {
          "index": 13
        }
      }
    },
    {
      "doubleSided": true,
      "name": "LegArmor",
      "normalTexture": {
        "index": 17
      },
      "occlusionTexture": {
        "index": 16
      },
      "pbrMetallicRoughness": {
        "baseColorTexture": {
          "index": 15
        },
        "metallicRoughnessTexture": {
          "index": 16
        }
      }
    }
  ],
  "meshes": [
    {
      "name": "Cloth_Cloth_0",
      "primitives": [
        {
          "attributes": {
            "NORMAL": 1,
            "POSITION": 0,
            "TANGENT": 2,
            "TEXCOORD_0": 3
          },
          "indices": 4,
          "material": 0,
          "mode": 4
        }
      ]
    },
    {
      "name": "ChestArmor_ChestArmor_0",
      "primitives": [
        {
          "attributes": {
            "NORMAL": 6,
            "POSITION": 5,
            "TANGENT": 7,
            "TEXCOORD_0": 8
          },
          "indices": 9,
          "material": 1,
          "mode": 4
        }
      ]
    },
    {
      "name": "ChestParts_ChestParts_0",
      "primitives": [
        {
          "attributes": {
            "NORMAL": 11,
            "POSITION": 10,
            "TANGENT": 12,
            "TEXCOORD_0": 13
          },
          "indices": 14,
          "material": 2,
          "mode": 4
        }
      ]
    },
    {
      "name": "ArmArmor_ArmArmor_0",
      "primitives": [
        {
          "attributes": {
            "NORMAL": 16,
            "POSITION": 15,
            "TANGENT": 17,
            "TEXCOORD_0": 18
          },
          "indices": 19,
          "material": 3,
          "mode": 4
        }
      ]
    },
    {
      "name": "Cloak_Cloak_0",
      "primitives": [
        {
          "attributes": {
            "NORMAL": 21,
            "POSITION": 20,
            "TANGENT": 22,
            "TEXCOORD_0": 23
          },
          "indices": 24,
          "material": 4,
          "mode": 4
        }
      ]
    },
    {
      "name": "LegArmor_LegArmor_0",
      "primitives": [
        {
          "attributes": {
            "NORMAL": 26,
            "POSITION": 25,
            "TANGENT": 27,
            "TEXCOORD_0": 28
          },
          "indices": 29,
          "material": 5,
          "mode": 4
        }
      ]
    }
  ],
  "nodes": [
    {
      "children": [
        1
      ],
      "matrix": [
        1.0,
        0.0,
        0.0,
        0.0,
        0.0,
        2.220446049250313e-16,
        -1.0,
        0.0,
        0.0,
        1.0,
        2.220446049250313e-16,
        0.0,
        0.0,
        0.0,
        0.0,
        1.0
      ],
      "name": "Sketchfab_model"
    },
    {
      "children": [
        2
      ],
      "matrix": [
        0.009999999776482582,
        0.0,
        0.0,
        0.0,
        0.0,
        0.0,
        0.009999999776482582,
        0.0,
        0.0,
        -0.009999999776482582,
        0.0,
        0.0,
        0.0,
        0.0,
        0.0,
        1.0
      ],
      "name": "19ebd88ffa89420eac6fb98a245cecec.fbx"
    },
    {
      "children": [
        3,
        5,
        7,
        9,
        11,
        13
      ],
      "name": "RootNode"
    },
    {
      "children": [
        4
      ],
      "matrix": [
        0.9999999999997876,
        3.8132266849632774e-21,
        -6.516826829283213e-07,
        0.0,
        -4.920067403395194e-14,
        0.9999999999999971,
        -7.54978941585999e-08,
        0.0,
        6.516826829283194e-07,
        7.549789415861594e-08,
        0.9999999999997848,
        0.0,
        0.0,
        -2.8370559215545654,
        0.0,
        1.0
      ],
      "name": "Cloth"
    },
    {
      "mesh": 0,
      "name": "Cloth_Cloth_0"
    },
    {
      "children": [
        6
      ],
      "matrix": [
        0.9999999999997876,
        3.8132266849632774e-21,
        -6.516826829283213e-07,
        0.0,
        -4.920067403395194e-14,
        0.9999999999999971,
        -7.54978941585999e-08,
        0.0,
        6.516826829283194e-07,
        7.549789415861594e-08,
        0.9999999999997848,
        0.0,
        0.0,
        -2.8370559215545654,
        0.0,
        1.0
      ],
      "name": "ChestArmor"
    },
    {
      "mesh": 1,
      "name": "ChestArmor_ChestArmor_0"
    },
    {
      "children": [
        8
      ],
      "matrix": [
        0.9999999999997876,
        3.8132266849632774e-21,
        -6.516826829283213e-07,
        0.0,
        -4.920067403395194e-14,
        0.9999999999999971,
        -7.54978941585999e-08,
        0.0,
        6.516826829283194e-07,
        7.549789415861594e-08,
        0.9999999999997848,
        0.0,
        0.0,
        -2.8370559215545654,
        0.0,
        1.0
      ],
      "name": "ChestParts"
    },
    {
      "mesh": 2,
      "name": "ChestParts_ChestParts_0"
    },
    {
      "children": [
        10
      ],
      "matrix": [
        0.9999999999997876,
        3.8132266849632774e-21,
        -6.516826829283213e-07,
        0.0,
        -4.920067403395194e-14,
        0.9999999999999971,
        -7.54978941585999e-08,
        0.0,
        6.516826829283194e-07,
        7.549789415861594e-08,
        0.9999999999997848,
        0.0,
        0.0,
        -2.8370559215545654,
        0.0,
        1.0
      ],
      "name": "ArmArmor"
    },
    {
      "mesh": 3,
      "name": "ArmArmor_ArmArmor_0"
    },
    {
      "children": [
        12
      ],
      "matrix": [
        0.9999999999997876,
        3.8132266849632774e-21,
        -6.516826829283213e-07,
        0.0,
        -4.920067403395194e-14,
        0.9999999999999971,
        -7.54978941585999e-08,
        0.0,
        6.516826829283194e-07,
        7.549789415861594e-08,
        0.9999999999997848,
        0.0,
        0.0,
        -2.8370559215545654,
        0.0,
        1.0
      ],
      "name": "Cloak"
    },
    {
      "mesh": 4,
      "name": "Cloak_Cloak_0"
    },
    {
      "children": [
        14
      ],
      "matrix": [
        0.9999999999997876,
        3.8132266849632774e-21,
        -6.516826829283213e-07,
        0.0,
        -4.920067403395194e-14,
        0.9999999999999971,
        -7.54978941585999e-08,
        0.0,
        6.516826829283194e-07,
        7.549789415861594e-08,
        0.9999999999997848,
        0.0,
        0.0,
        -2.8370559215545654,
        0.0,
        1.0
      ],
      "name": "LegArmor"
    },
    {
      "mesh": 5,
      "name": "LegArmor_LegArmor_0"
    }
  ],
  "samplers": [
    {
      "magFilter": 9729,
      "minFilter": 9987,
      "wrapS": 10497,
      "wrapT": 10497
    }
  ],
  "scene": 0,
  "scenes": [
    {
      "name": "Sketchfab_Scene",
      "nodes": [
        0
      ]
    }
  ],
  "textures": [
    {
      "sampler": 0,
      "source": 0
    },
    {
      "sampler": 0,
      "source": 1
    },
    {
      "sampler": 0,
      "source": 2
    },
    {
      "sampler": 0,
      "source": 3
    },
    {
      "sampler": 0,
      "source": 4
    },
    {
      "sampler": 0,
      "source": 5
    },
    {
      "sampler": 0,
      "source": 6
    },
    {
      "sampler": 0,
      "source": 7
    },
    {
      "sampler": 0,
      "source": 8
    },
    {
      "sampler": 0,
      "source": 9
    },
    {
      "sampler": 0,
      "source": 10
    },
    {
      "sampler": 0,
      "source": 11
    },
    {
      "sampler": 0,
      "source": 12
    },
    {
      "sampler": 0,
      "source": 13
    },
    {
      "sampler": 0,
      "source": 14
    },
    {
      "sampler": 0,
      "source": 15
    },
    {
      "sampler": 0,
      "source": 16
    },
    {
      "sampler": 0,
      "source": 17
    }
  ]
}
