{
	"asset":{
		"generator":"Khronos glTF Blender I/O v3.5.30",
		"version":"2.0"
	},
	"extensionsUsed":[
		"KHR_materials_specular",
		"KHR_materials_ior"
	],
	"scene":0,
	"scenes":[
		{
			"name":"Scene",
			"nodes":[
				0
			]
		}
	],
	"nodes":[
		{
			"mesh":0,
			"name":"avatar-women",
			"rotation":[
				0.7071068286895752,
				0,
				0,
				0.7071068286895752
			],
			"scale":[
				0.005941138602793217,
				0.005941138602793217,
				0.005941138602793217
			]
		}
	],
	"materials":[
		{
			"alphaMode":"BLEND",
			"doubleSided":true,
			"extensions":{
				"KHR_materials_specular":{
					"specularColorFactor":[
						0.17785182815030126,
						0.17785182815030126,
						0.17785182815030126
					]
				},
				"KHR_materials_ior":{
					"ior":1.4500000476837158
				}
			},
			"name":"dummySG1SG1.001",
			"pbrMetallicRoughness":{
				"baseColorTexture":{
					"index":0
				},
				"metallicFactor":0,
				"roughnessFactor":0.8304027318954468
			}
		},
		{
			"doubleSided":true,
			"extensions":{
				"KHR_materials_specular":{
					"specularColorFactor":[
						0.1387244277240341,
						0.1387244277240341,
						0.1387244277240341
					]
				},
				"KHR_materials_ior":{
					"ior":1.4500000476837158
				}
			},
			"name":"W_Shoes_skinSG1SG1SG1.001",
			"pbrMetallicRoughness":{
				"baseColorTexture":{
					"index":1
				},
				"metallicFactor":0,
				"roughnessFactor":0.873508870601654
			}
		},
		{
			"doubleSided":true,
			"extensions":{
				"KHR_materials_specular":{
					"specularColorFactor":[
						0.1387244277240341,
						0.1387244277240341,
						0.1387244277240341
					]
				},
				"KHR_materials_ior":{
					"ior":1.4500000476837158
				}
			},
			"name":"HEELSG1SG1.001",
			"pbrMetallicRoughness":{
				"baseColorTexture":{
					"index":2
				},
				"metallicFactor":0,
				"roughnessFactor":0.873508870601654
			}
		},
		{
			"doubleSided":true,
			"extensions":{
				"KHR_materials_specular":{
					"specularColorFactor":[
						0.07665176635834381,
						0.07665176635834381,
						0.07665176635834381
					]
				},
				"KHR_materials_ior":{
					"ior":1.4500000476837158
				}
			},
			"name":"hair2.001",
			"pbrMetallicRoughness":{
				"baseColorTexture":{
					"index":3
				},
				"metallicFactor":0,
				"roughnessFactor":0.9205644726753235
			}
		},
		{
			"doubleSided":true,
			"extensions":{
				"KHR_materials_specular":{
					"specularColorFactor":[
						0.39127402193066274,
						0.39127402193066274,
						0.39127402193066274
					]
				},
				"KHR_materials_ior":{
					"ior":1.4500000476837158
				}
			},
			"name":"Mara:face2.001",
			"pbrMetallicRoughness":{
				"baseColorTexture":{
					"index":4
				},
				"metallicFactor":0,
				"roughnessFactor":0.8062198758125305
			}
		},
		{
			"doubleSided":true,
			"extensions":{
				"KHR_materials_specular":{
					"specularColorFactor":[
						0.39127402193066274,
						0.39127402193066274,
						0.39127402193066274
					]
				},
				"KHR_materials_ior":{
					"ior":1.4500000476837158
				}
			},
			"name":"Mara:body3.001",
			"pbrMetallicRoughness":{
				"baseColorTexture":{
					"index":5
				},
				"metallicFactor":0,
				"roughnessFactor":0.8062198758125305
			}
		},
		{
			"doubleSided":true,
			"extensions":{
				"KHR_materials_specular":{
					"specularColorFactor":[
						0.39127402193066274,
						0.39127402193066274,
						0.39127402193066274
					]
				},
				"KHR_materials_ior":{
					"ior":1.4500000476837158
				}
			},
			"name":"Mara:arm2.001",
			"pbrMetallicRoughness":{
				"baseColorTexture":{
					"index":6
				},
				"metallicFactor":0,
				"roughnessFactor":0.8062198758125305
			}
		},
		{
			"doubleSided":true,
			"extensions":{
				"KHR_materials_specular":{
					"specularColorFactor":[
						0.39127402193066274,
						0.39127402193066274,
						0.39127402193066274
					]
				},
				"KHR_materials_ior":{
					"ior":1.4500000476837158
				}
			},
			"name":"Mara:leg2.001",
			"pbrMetallicRoughness":{
				"baseColorTexture":{
					"index":7
				},
				"metallicFactor":0,
				"roughnessFactor":0.8062198758125305
			}
		},
		{
			"doubleSided":true,
			"extensions":{
				"KHR_materials_specular":{
					"specularColorFactor":[
						1.32796026974094,
						1.32796026974094,
						1.32796026974094
					]
				},
				"KHR_materials_ior":{
					"ior":1.4500000476837158
				}
			},
			"name":"Mara:eye2.001",
			"pbrMetallicRoughness":{
				"baseColorTexture":{
					"index":8
				},
				"metallicFactor":0,
				"roughnessFactor":0.6422290802001953
			}
		},
		{
			"doubleSided":true,
			"extensions":{
				"KHR_materials_specular":{
					"specularColorFactor":[
						0.11953303183489347,
						0.11953303183489347,
						0.11953303183489347
					]
				},
				"KHR_materials_ior":{
					"ior":1.4500000476837158
				}
			},
			"name":"Mara:skin_14:skin_13:skin_11:skin_10:pose:pose:eyelash1.001",
			"pbrMetallicRoughness":{
				"baseColorTexture":{
					"index":9
				},
				"metallicFactor":0,
				"roughnessFactor":0.8904554843902588
			}
		},
		{
			"doubleSided":true,
			"extensions":{
				"KHR_materials_specular":{
					"specularColorFactor":[
						0.11953303183489347,
						0.11953303183489347,
						0.11953303183489347
					]
				},
				"KHR_materials_ior":{
					"ior":1.4500000476837158
				}
			},
			"name":"Mara:tooth2.001",
			"pbrMetallicRoughness":{
				"baseColorTexture":{
					"index":10
				},
				"metallicFactor":0,
				"roughnessFactor":0.8904554843902588
			}
		}
	],
	"meshes":[
		{
			"name":"avatar-women.001",
			"primitives":[
				{
					"attributes":{
						"POSITION":0,
						"TEXCOORD_0":1,
						"NORMAL":2
					},
					"indices":3,
					"material":0
				},
				{
					"attributes":{
						"POSITION":4,
						"TEXCOORD_0":5,
						"NORMAL":6
					},
					"indices":7,
					"material":1
				},
				{
					"attributes":{
						"POSITION":8,
						"TEXCOORD_0":9,
						"NORMAL":10
					},
					"indices":11,
					"material":2
				},
				{
					"attributes":{
						"POSITION":12,
						"TEXCOORD_0":13,
						"NORMAL":14
					},
					"indices":15,
					"material":3
				},
				{
					"attributes":{
						"POSITION":16,
						"TEXCOORD_0":17,
						"NORMAL":18
					},
					"indices":19,
					"material":4
				},
				{
					"attributes":{
						"POSITION":20,
						"TEXCOORD_0":21,
						"NORMAL":22
					},
					"indices":23,
					"material":5
				},
				{
					"attributes":{
						"POSITION":24,
						"TEXCOORD_0":25,
						"NORMAL":26
					},
					"indices":27,
					"material":6
				},
				{
					"attributes":{
						"POSITION":28,
						"TEXCOORD_0":29,
						"NORMAL":30
					},
					"indices":31,
					"material":7
				},
				{
					"attributes":{
						"POSITION":32,
						"TEXCOORD_0":33,
						"NORMAL":34
					},
					"indices":35,
					"material":8
				},
				{
					"attributes":{
						"POSITION":36,
						"TEXCOORD_0":37,
						"NORMAL":38
					},
					"indices":39,
					"material":9
				},
				{
					"attributes":{
						"POSITION":40,
						"TEXCOORD_0":41,
						"NORMAL":42
					},
					"indices":43,
					"material":10
				}
			]
		}
	],
	"textures":[
		{
			"sampler":0,
			"source":0
		},
		{
			"sampler":0,
			"source":1
		},
		{
			"sampler":0,
			"source":1
		},
		{
			"sampler":0,
			"source":2
		},
		{
			"sampler":0,
			"source":3
		},
		{
			"sampler":0,
			"source":4
		},
		{
			"sampler":0,
			"source":5
		},
		{
			"sampler":0,
			"source":6
		},
		{
			"sampler":0,
			"source":7
		},
		{
			"sampler":0,
			"source":8
		},
		{
			"sampler":0,
			"source":9
		}
	],
	"images":[
		{
			"mimeType":"image/png",
			"name":"transparency",
			"uri":"transparency.png"
		},
		{
			"mimeType":"image/jpeg",
			"name":"FV2_Open_Toe_Pump",
			"uri":"FV2_Open_Toe_Pump.jpg"
		},
		{
			"mimeType":"image/jpeg",
			"name":"hair",
			"uri":"hair.jpg"
		},
		{
			"mimeType":"image/jpeg",
			"name":"face",
			"uri":"face.jpg"
		},
		{
			"mimeType":"image/jpeg",
			"name":"body_Covered_Beige",
			"uri":"body_Covered_Beige.jpg"
		},
		{
			"mimeType":"image/jpeg",
			"name":"arm",
			"uri":"arm.jpg"
		},
		{
			"mimeType":"image/jpeg",
			"name":"leg",
			"uri":"leg.jpg"
		},
		{
			"mimeType":"image/jpeg",
			"name":"eye",
			"uri":"eye.jpg"
		},
		{
			"mimeType":"image/jpeg",
			"name":"eyelash",
			"uri":"eyelash.jpg"
		},
		{
			"mimeType":"image/jpeg",
			"name":"tooth",
			"uri":"tooth.jpg"
		}
	],
	"accessors":[
		{
			"bufferView":0,
			"componentType":5126,
			"count":1634,
			"max":[
				138.71824645996094,
				100.14444732666016,
				-0.24294300377368927
			],
			"min":[
				-141.64358520507812,
				-107.83610534667969,
				-110.30829620361328
			],
			"type":"VEC3"
		},
		{
			"bufferView":1,
			"componentType":5126,
			"count":1634,
			"type":"VEC2"
		},
		{
			"bufferView":2,
			"componentType":5126,
			"count":1634,
			"type":"VEC3"
		},
		{
			"bufferView":3,
			"componentType":5123,
			"count":8226,
			"type":"SCALAR"
		},
		{
			"bufferView":4,
			"componentType":5126,
			"count":4446,
			"max":[
				140.71832275390625,
				109.04877471923828,
				-0.5707240104675293
			],
			"min":[
				-143.6429901123047,
				-108.1228256225586,
				-154.396240234375
			],
			"type":"VEC3"
		},
		{
			"bufferView":5,
			"componentType":5126,
			"count":4446,
			"type":"VEC2"
		},
		{
			"bufferView":6,
			"componentType":5126,
			"count":4446,
			"type":"VEC3"
		},
		{
			"bufferView":7,
			"componentType":5123,
			"count":24156,
			"type":"SCALAR"
		},
		{
			"bufferView":8,
			"componentType":5126,
			"count":1636,
			"max":[
				112.68727111816406,
				-67.3828125,
				-1.4778900146484375
			],
			"min":[
				-115.6119155883789,
				-107.08198547363281,
				-107.16740417480469
			],
			"type":"VEC3"
		},
		{
			"bufferView":9,
			"componentType":5126,
			"count":1636,
			"type":"VEC2"
		},
		{
			"bufferView":10,
			"componentType":5126,
			"count":1636,
			"type":"VEC3"
		},
		{
			"bufferView":11,
			"componentType":5123,
			"count":8556,
			"type":"SCALAR"
		},
		{
			"bufferView":12,
			"componentType":5126,
			"count":7347,
			"max":[
				75.25885772705078,
				60.91421127319336,
				-1675.7945556640625
			],
			"min":[
				-78.44811248779297,
				-148.16110229492188,
				-1879.2412109375
			],
			"type":"VEC3"
		},
		{
			"bufferView":13,
			"componentType":5126,
			"count":7347,
			"type":"VEC2"
		},
		{
			"bufferView":14,
			"componentType":5126,
			"count":7347,
			"type":"VEC3"
		},
		{
			"bufferView":15,
			"componentType":5123,
			"count":42312,
			"type":"SCALAR"
		},
		{
			"bufferView":16,
			"componentType":5126,
			"count":8187,
			"max":[
				80.26625061035156,
				94.56735229492188,
				-1654.496826171875
			],
			"min":[
				-83.21089172363281,
				-110.05604553222656,
				-1861.9176025390625
			],
			"type":"VEC3"
		},
		{
			"bufferView":17,
			"componentType":5126,
			"count":8187,
			"type":"VEC2"
		},
		{
			"bufferView":18,
			"componentType":5126,
			"count":8187,
			"type":"VEC3"
		},
		{
			"bufferView":19,
			"componentType":5123,
			"count":48072,
			"type":"SCALAR"
		},
		{
			"bufferView":20,
			"componentType":5126,
			"count":7019,
			"max":[
				179.85418701171875,
				98.70502471923828,
				-886.7517700195312
			],
			"min":[
				-182.79864501953125,
				-138.98126220703125,
				-1700.083984375
			],
			"type":"VEC3"
		},
		{
			"bufferView":21,
			"componentType":5126,
			"count":7019,
			"type":"VEC2"
		},
		{
			"bufferView":22,
			"componentType":5126,
			"count":7019,
			"type":"VEC3"
		},
		{
			"bufferView":23,
			"componentType":5123,
			"count":40644,
			"type":"SCALAR"
		},
		{
			"bufferView":24,
			"componentType":5126,
			"count":10736,
			"max":[
				613.139404296875,
				83.96553802490234,
				-993.0382080078125
			],
			"min":[
				-616.0830688476562,
				-113.60172271728516,
				-1585.2880859375
			],
			"type":"VEC3"
		},
		{
			"bufferView":25,
			"componentType":5126,
			"count":10736,
			"type":"VEC2"
		},
		{
			"bufferView":26,
			"componentType":5126,
			"count":10736,
			"type":"VEC3"
		},
		{
			"bufferView":27,
			"componentType":5123,
			"count":60408,
			"type":"SCALAR"
		},
		{
			"bufferView":28,
			"componentType":5126,
			"count":6878,
			"max":[
				175.577880859375,
				102.70582580566406,
				-15.049514770507812
			],
			"min":[
				-178.52236938476562,
				-106.53695678710938,
				-915.4635620117188
			],
			"type":"VEC3"
		},
		{
			"bufferView":29,
			"componentType":5126,
			"count":6878,
			"type":"VEC2"
		},
		{
			"bufferView":30,
			"componentType":5126,
			"count":6878,
			"type":"VEC3"
		},
		{
			"bufferView":31,
			"componentType":5123,
			"count":38850,
			"type":"SCALAR"
		},
		{
			"bufferView":32,
			"componentType":5126,
			"count":596,
			"max":[
				45.17558670043945,
				57.38106918334961,
				-1741.4156494140625
			],
			"min":[
				-47.64229202270508,
				24.507953643798828,
				-1774.2574462890625
			],
			"type":"VEC3"
		},
		{
			"bufferView":33,
			"componentType":5126,
			"count":596,
			"type":"VEC2"
		},
		{
			"bufferView":34,
			"componentType":5126,
			"count":596,
			"type":"VEC3"
		},
		{
			"bufferView":35,
			"componentType":5123,
			"count":3552,
			"type":"SCALAR"
		},
		{
			"bufferView":36,
			"componentType":5126,
			"count":3580,
			"max":[
				46.22554397583008,
				67.82289123535156,
				-1748.735107421875
			],
			"min":[
				-49.17020797729492,
				46.709136962890625,
				-1766.505615234375
			],
			"type":"VEC3"
		},
		{
			"bufferView":37,
			"componentType":5126,
			"count":3580,
			"type":"VEC2"
		},
		{
			"bufferView":38,
			"componentType":5126,
			"count":3580,
			"type":"VEC3"
		},
		{
			"bufferView":39,
			"componentType":5123,
			"count":8592,
			"type":"SCALAR"
		},
		{
			"bufferView":40,
			"componentType":5126,
			"count":5730,
			"max":[
				34.350547790527344,
				69.54428100585938,
				-1680.010009765625
			],
			"min":[
				-37.295204162597656,
				-10.564199447631836,
				-1727.9921875
			],
			"type":"VEC3"
		},
		{
			"bufferView":41,
			"componentType":5126,
			"count":5730,
			"type":"VEC2"
		},
		{
			"bufferView":42,
			"componentType":5126,
			"count":5730,
			"type":"VEC3"
		},
		{
			"bufferView":43,
			"componentType":5123,
			"count":28776,
			"type":"SCALAR"
		}
	],
	"bufferViews":[
		{
			"buffer":0,
			"byteLength":19608,
			"byteOffset":0,
			"target":34962
		},
		{
			"buffer":0,
			"byteLength":13072,
			"byteOffset":19608,
			"target":34962
		},
		{
			"buffer":0,
			"byteLength":19608,
			"byteOffset":32680,
			"target":34962
		},
		{
			"buffer":0,
			"byteLength":16452,
			"byteOffset":52288,
			"target":34963
		},
		{
			"buffer":0,
			"byteLength":53352,
			"byteOffset":68740,
			"target":34962
		},
		{
			"buffer":0,
			"byteLength":35568,
			"byteOffset":122092,
			"target":34962
		},
		{
			"buffer":0,
			"byteLength":53352,
			"byteOffset":157660,
			"target":34962
		},
		{
			"buffer":0,
			"byteLength":48312,
			"byteOffset":211012,
			"target":34963
		},
		{
			"buffer":0,
			"byteLength":19632,
			"byteOffset":259324,
			"target":34962
		},
		{
			"buffer":0,
			"byteLength":13088,
			"byteOffset":278956,
			"target":34962
		},
		{
			"buffer":0,
			"byteLength":19632,
			"byteOffset":292044,
			"target":34962
		},
		{
			"buffer":0,
			"byteLength":17112,
			"byteOffset":311676,
			"target":34963
		},
		{
			"buffer":0,
			"byteLength":88164,
			"byteOffset":328788,
			"target":34962
		},
		{
			"buffer":0,
			"byteLength":58776,
			"byteOffset":416952,
			"target":34962
		},
		{
			"buffer":0,
			"byteLength":88164,
			"byteOffset":475728,
			"target":34962
		},
		{
			"buffer":0,
			"byteLength":84624,
			"byteOffset":563892,
			"target":34963
		},
		{
			"buffer":0,
			"byteLength":98244,
			"byteOffset":648516,
			"target":34962
		},
		{
			"buffer":0,
			"byteLength":65496,
			"byteOffset":746760,
			"target":34962
		},
		{
			"buffer":0,
			"byteLength":98244,
			"byteOffset":812256,
			"target":34962
		},
		{
			"buffer":0,
			"byteLength":96144,
			"byteOffset":910500,
			"target":34963
		},
		{
			"buffer":0,
			"byteLength":84228,
			"byteOffset":1006644,
			"target":34962
		},
		{
			"buffer":0,
			"byteLength":56152,
			"byteOffset":1090872,
			"target":34962
		},
		{
			"buffer":0,
			"byteLength":84228,
			"byteOffset":1147024,
			"target":34962
		},
		{
			"buffer":0,
			"byteLength":81288,
			"byteOffset":1231252,
			"target":34963
		},
		{
			"buffer":0,
			"byteLength":128832,
			"byteOffset":1312540,
			"target":34962
		},
		{
			"buffer":0,
			"byteLength":85888,
			"byteOffset":1441372,
			"target":34962
		},
		{
			"buffer":0,
			"byteLength":128832,
			"byteOffset":1527260,
			"target":34962
		},
		{
			"buffer":0,
			"byteLength":120816,
			"byteOffset":1656092,
			"target":34963
		},
		{
			"buffer":0,
			"byteLength":82536,
			"byteOffset":1776908,
			"target":34962
		},
		{
			"buffer":0,
			"byteLength":55024,
			"byteOffset":1859444,
			"target":34962
		},
		{
			"buffer":0,
			"byteLength":82536,
			"byteOffset":1914468,
			"target":34962
		},
		{
			"buffer":0,
			"byteLength":77700,
			"byteOffset":1997004,
			"target":34963
		},
		{
			"buffer":0,
			"byteLength":7152,
			"byteOffset":2074704,
			"target":34962
		},
		{
			"buffer":0,
			"byteLength":4768,
			"byteOffset":2081856,
			"target":34962
		},
		{
			"buffer":0,
			"byteLength":7152,
			"byteOffset":2086624,
			"target":34962
		},
		{
			"buffer":0,
			"byteLength":7104,
			"byteOffset":2093776,
			"target":34963
		},
		{
			"buffer":0,
			"byteLength":42960,
			"byteOffset":2100880,
			"target":34962
		},
		{
			"buffer":0,
			"byteLength":28640,
			"byteOffset":2143840,
			"target":34962
		},
		{
			"buffer":0,
			"byteLength":42960,
			"byteOffset":2172480,
			"target":34962
		},
		{
			"buffer":0,
			"byteLength":17184,
			"byteOffset":2215440,
			"target":34963
		},
		{
			"buffer":0,
			"byteLength":68760,
			"byteOffset":2232624,
			"target":34962
		},
		{
			"buffer":0,
			"byteLength":45840,
			"byteOffset":2301384,
			"target":34962
		},
		{
			"buffer":0,
			"byteLength":68760,
			"byteOffset":2347224,
			"target":34962
		},
		{
			"buffer":0,
			"byteLength":57552,
			"byteOffset":2415984,
			"target":34963
		}
	],
	"samplers":[
		{
			"magFilter":9729,
			"minFilter":9987
		}
	],
	"buffers":[
		{
			"byteLength":2473536,
			"uri":"Body.bin"
		}
	]
}
