{
	"asset":{
		"generator":"Khronos glTF Blender I/O v3.5.30",
		"version":"2.0"
	},
	"extensionsUsed":[
		"KHR_materials_specular",
		"KHR_materials_ior"
	],
	"scene":0,
	"scenes":[
		{
			"name":"Scene",
			"nodes":[
				0
			]
		}
	],
	"nodes":[
		{
			"mesh":0,
			"name":"tolstovka",
			"rotation":[
				0.7071068286895752,
				0,
				0,
				0.7071068286895752
			],
			"scale":[
				0.00597933167591691,
				0.00597933167591691,
				0.00597933167591691
			]
		}
	],
	"materials":[
		{
			"doubleSided":true,
			"extensions":{
				"KHR_materials_specular":{
					"specularColorFactor":[
						0.17785182815030126,
						0.17785182815030126,
						0.17785182815030126
					]
				},
				"KHR_materials_ior":{
					"ior":1.4500000476837158
				}
			},
			"name":"Knit_Fleece_Terry_FRONT_899062.001",
			"normalTexture":{
				"index":0,
				"scale":0
			},
			"pbrMetallicRoughness":{
				"baseColorTexture":{
					"index":1
				},
				"metallicFactor":0,
				"roughnessFactor":0.8304027318954468
			}
		}
	],
	"meshes":[
		{
			"name":"tolstovka.001",
			"primitives":[
				{
					"attributes":{
						"POSITION":0,
						"TEXCOORD_0":1,
						"NORMAL":2
					},
					"indices":3,
					"material":0
				}
			]
		}
	],
	"textures":[
		{
			"sampler":0,
			"source":0
		},
		{
			"sampler":0,
			"source":1
		}
	],
	"images":[
		{
			"mimeType":"image/png",
			"name":"tolstovka_normal_1001",
			"uri":"tolstovka_normal_1001.png"
		},
		{
			"mimeType":"image/png",
			"name":"tolstovka_diffuse_1001",
			"uri":"tolstovka_diffuse_1001.png"
		}
	],
	"accessors":[
		{
			"bufferView":0,
			"componentType":5126,
			"count":8094,
			"max":[
				554.3927612304688,
				117.02220153808594,
				-964.7277221679688
			],
			"min":[
				-560.1846313476562,
				-236.55870056152344,
				-1645.694091796875
			],
			"type":"VEC3"
		},
		{
			"bufferView":1,
			"componentType":5126,
			"count":8094,
			"type":"VEC2"
		},
		{
			"bufferView":2,
			"componentType":5126,
			"count":8094,
			"type":"VEC3"
		},
		{
			"bufferView":3,
			"componentType":5123,
			"count":45906,
			"type":"SCALAR"
		}
	],
	"bufferViews":[
		{
			"buffer":0,
			"byteLength":97128,
			"byteOffset":0,
			"target":34962
		},
		{
			"buffer":0,
			"byteLength":64752,
			"byteOffset":97128,
			"target":34962
		},
		{
			"buffer":0,
			"byteLength":97128,
			"byteOffset":161880,
			"target":34962
		},
		{
			"buffer":0,
			"byteLength":91812,
			"byteOffset":259008,
			"target":34963
		}
	],
	"samplers":[
		{
			"magFilter":9729,
			"minFilter":9987
		}
	],
	"buffers":[
		{
			"byteLength":350820,
			"uri":"tolstovka.bin"
		}
	]
}
