{
	"asset":{
		"generator":"Khronos glTF Blender I/O v3.5.30",
		"version":"2.0"
	},
	"extensionsUsed":[
		"KHR_materials_specular",
		"KHR_materials_ior"
	],
	"scene":0,
	"scenes":[
		{
			"name":"Scene",
			"nodes":[
				0
			]
		}
	],
	"nodes":[
		{
			"mesh":0,
			"name":"qwerty",
			"rotation":[
				0.4994443356990814,
				0.500555157661438,
				-0.5005550980567932,
				0.4994443655014038
			],
			"scale":[
				0.0030986706260591745,
				0.0030986706260591745,
				0.0030986701603978872
			],
			"translation":[
				0.6176344156265259,
				-3.0151259899139404,
				-0.06566213071346283
			]
		}
	],
	"materials":[
		{
			"doubleSided":true,
			"extensions":{
				"KHR_materials_specular":{
					"specularColorFactor":[
						0.17785182815030126,
						0.17785182815030126,
						0.17785182815030126
					]
				},
				"KHR_materials_ior":{
					"ior":1.4500000476837158
				}
			},
			"name":"Silk_Duchess_Satin_FRONT_35292",
			"normalTexture":{
				"index":0,
				"scale":0
			},
			"pbrMetallicRoughness":{
				"baseColorTexture":{
					"index":1
				},
				"metallicFactor":0,
				"roughnessFactor":0.8304027318954468
			}
		}
	],
	"meshes":[
		{
			"name":"qwerty",
			"primitives":[
				{
					"attributes":{
						"POSITION":0,
						"TEXCOORD_0":1,
						"NORMAL":2
					},
					"indices":3,
					"material":0
				}
			]
		}
	],
	"textures":[
		{
			"sampler":0,
			"source":0
		},
		{
			"sampler":0,
			"source":1
		}
	],
	"images":[
		{
			"mimeType":"image/png",
			"name":"qwerty_normal_1001",
			"uri":"qwerty_normal_1001.png"
		},
		{
			"mimeType":"image/png",
			"name":"qwerty_diffuse_1001",
			"uri":"qwerty_diffuse_1001.png"
		}
	],
	"accessors":[
		{
			"bufferView":0,
			"componentType":5126,
			"count":3623,
			"max":[
				350.4115295410156,
				104.95428466796875,
				-985.0166015625
			],
			"min":[
				-368.0522155761719,
				-147.06570434570312,
				-1618.4136962890625
			],
			"type":"VEC3"
		},
		{
			"bufferView":1,
			"componentType":5126,
			"count":3623,
			"type":"VEC2"
		},
		{
			"bufferView":2,
			"componentType":5126,
			"count":3623,
			"type":"VEC3"
		},
		{
			"bufferView":3,
			"componentType":5123,
			"count":20616,
			"type":"SCALAR"
		}
	],
	"bufferViews":[
		{
			"buffer":0,
			"byteLength":43476,
			"byteOffset":0,
			"target":34962
		},
		{
			"buffer":0,
			"byteLength":28984,
			"byteOffset":43476,
			"target":34962
		},
		{
			"buffer":0,
			"byteLength":43476,
			"byteOffset":72460,
			"target":34962
		},
		{
			"buffer":0,
			"byteLength":41232,
			"byteOffset":115936,
			"target":34963
		}
	],
	"samplers":[
		{
			"magFilter":9729,
			"minFilter":9987
		}
	],
	"buffers":[
		{
			"byteLength":157168,
			"uri":"futbolkagltf.bin"
		}
	]
}
