{
	"asset":{
		"generator":"Khronos glTF Blender I/O v3.5.30",
		"version":"2.0"
	},
	"extensionsUsed":[
		"KHR_materials_specular",
		"KHR_materials_ior"
	],
	"scene":0,
	"scenes":[
		{
			"name":"Scene",
			"nodes":[
				0
			]
		}
	],
	"nodes":[
		{
			"mesh":0,
			"name":"shtany",
			"rotation":[
				0.7071068286895752,
				0,
				0,
				0.7071068286895752
			],
			"scale":[
				0.004053750075399876,
				0.004053750075399876,
				0.004053750075399876
			]
		}
	],
	"materials":[
		{
			"doubleSided":true,
			"extensions":{
				"KHR_materials_specular":{
					"specularColorFactor":[
						0.17785182815030126,
						0.17785182815030126,
						0.17785182815030126
					]
				},
				"KHR_materials_ior":{
					"ior":1.4500000476837158
				}
			},
			"name":"FABRIC_1_FRONT_2031",
			"normalTexture":{
				"index":0,
				"scale":0
			},
			"pbrMetallicRoughness":{
				"baseColorTexture":{
					"index":1
				},
				"metallicFactor":0,
				"roughnessFactor":0.8304027318954468
			}
		}
	],
	"meshes":[
		{
			"name":"shtany",
			"primitives":[
				{
					"attributes":{
						"POSITION":0,
						"TEXCOORD_0":1,
						"NORMAL":2
					},
					"indices":3,
					"material":0
				}
			]
		}
	],
	"textures":[
		{
			"sampler":0,
			"source":0
		},
		{
			"sampler":0,
			"source":1
		}
	],
	"images":[
		{
			"mimeType":"image/png",
			"name":"shtany_normal_1001",
			"uri":"shtany_normal_1001.png"
		},
		{
			"mimeType":"image/png",
			"name":"shtany_diffuse_1001",
			"uri":"shtany_diffuse_1001.png"
		}
	],
	"accessors":[
		{
			"bufferView":0,
			"componentType":5126,
			"count":4342,
			"max":[
				184.20205688476562,
				102.89265441894531,
				-183.16531372070312
			],
			"min":[
				-186.88975524902344,
				-142.3091278076172,
				-1249.9154052734375
			],
			"type":"VEC3"
		},
		{
			"bufferView":1,
			"componentType":5126,
			"count":4342,
			"type":"VEC2"
		},
		{
			"bufferView":2,
			"componentType":5126,
			"count":4342,
			"type":"VEC3"
		},
		{
			"bufferView":3,
			"componentType":5123,
			"count":24270,
			"type":"SCALAR"
		}
	],
	"bufferViews":[
		{
			"buffer":0,
			"byteLength":52104,
			"byteOffset":0,
			"target":34962
		},
		{
			"buffer":0,
			"byteLength":34736,
			"byteOffset":52104,
			"target":34962
		},
		{
			"buffer":0,
			"byteLength":52104,
			"byteOffset":86840,
			"target":34962
		},
		{
			"buffer":0,
			"byteLength":48540,
			"byteOffset":138944,
			"target":34963
		}
	],
	"samplers":[
		{
			"magFilter":9729,
			"minFilter":9987
		}
	],
	"buffers":[
		{
			"byteLength":187484,
			"uri":"shtany.bin"
		}
	]
}
