{
	"asset":{
		"generator":"Khronos glTF Blender I/O v3.5.30",
		"version":"2.0"
	},
	"extensionsUsed":[
		"KHR_materials_specular",
		"KHR_materials_ior"
	],
	"scene":0,
	"scenes":[
		{
			"name":"Scene",
			"nodes":[
				0
			]
		}
	],
	"nodes":[
		{
			"mesh":0,
			"name":"men-futbolka",
			"rotation":[
				0.7071068286895752,
				0,
				0,
				0.7071068286895752
			],
			"scale":[
				0.0036563293542712927,
				0.0036563293542712927,
				0.0036563293542712927
			]
		}
	],
	"materials":[
		{
			"doubleSided":true,
			"extensions":{
				"KHR_materials_specular":{
					"specularColorFactor":[
						0.17785182815030126,
						0.17785182815030126,
						0.17785182815030126
					]
				},
				"KHR_materials_ior":{
					"ior":1.4500000476837158
				}
			},
			"name":"FABRIC_1_FRONT_4910",
			"normalTexture":{
				"index":0,
				"scale":0
			},
			"pbrMetallicRoughness":{
				"baseColorTexture":{
					"index":1
				},
				"metallicFactor":0,
				"roughnessFactor":0.8304027318954468
			}
		}
	],
	"meshes":[
		{
			"name":"men-futbolka",
			"primitives":[
				{
					"attributes":{
						"POSITION":0,
						"TEXCOORD_0":1,
						"NORMAL":2
					},
					"indices":3,
					"material":0
				}
			]
		}
	],
	"textures":[
		{
			"sampler":0,
			"source":0
		},
		{
			"sampler":0,
			"source":1
		}
	],
	"images":[
		{
			"mimeType":"image/png",
			"name":"men-futbolka_normal_1001",
			"uri":"men-futbolka_normal_1001.png"
		},
		{
			"mimeType":"image/png",
			"name":"men-futbolka_diffuse_1001",
			"uri":"men-futbolka_diffuse_1001.png"
		}
	],
	"accessors":[
		{
			"bufferView":0,
			"componentType":5126,
			"count":3623,
			"max":[
				384.44927978515625,
				142.2812042236328,
				-1025.387939453125
			],
			"min":[
				-381.3236389160156,
				-134.0818634033203,
				-1655.581298828125
			],
			"type":"VEC3"
		},
		{
			"bufferView":1,
			"componentType":5126,
			"count":3623,
			"type":"VEC2"
		},
		{
			"bufferView":2,
			"componentType":5126,
			"count":3623,
			"type":"VEC3"
		},
		{
			"bufferView":3,
			"componentType":5123,
			"count":20616,
			"type":"SCALAR"
		}
	],
	"bufferViews":[
		{
			"buffer":0,
			"byteLength":43476,
			"byteOffset":0,
			"target":34962
		},
		{
			"buffer":0,
			"byteLength":28984,
			"byteOffset":43476,
			"target":34962
		},
		{
			"buffer":0,
			"byteLength":43476,
			"byteOffset":72460,
			"target":34962
		},
		{
			"buffer":0,
			"byteLength":41232,
			"byteOffset":115936,
			"target":34963
		}
	],
	"samplers":[
		{
			"magFilter":9729,
			"minFilter":9987
		}
	],
	"buffers":[
		{
			"byteLength":157168,
			"uri":"menFutbolka.bin"
		}
	]
}
