{
	"asset":{
		"generator":"Khronos glTF Blender I/O v3.5.30",
		"version":"2.0"
	},
	"extensionsUsed":[
		"KHR_materials_specular",
		"KHR_materials_ior"
	],
	"scene":0,
	"scenes":[
		{
			"name":"Scene",
			"nodes":[
				0
			]
		}
	],
	"nodes":[
		{
			"mesh":0,
			"name":"men-model",
			"rotation":[
				0.7071068286895752,
				0,
				0,
				0.7071068286895752
			],
			"scale":[
				0.0036193830892443657,
				0.0036193830892443657,
				0.0036193830892443657
			]
		}
	],
	"materials":[
		{
			"doubleSided":true,
			"extensions":{
				"KHR_materials_specular":{
					"specularColorFactor":[
						0.1536118038241882,
						0.1536118038241882,
						0.1536118038241882
					]
				},
				"KHR_materials_ior":{
					"ior":1.4500000476837158
				}
			},
			"name":"M_Thomas_Sneaker_A_03_Male_Sneaker_02_opencollada_Female_Sneake",
			"pbrMetallicRoughness":{
				"baseColorTexture":{
					"index":0
				},
				"metallicFactor":0,
				"roughnessFactor":0.8585786819458008
			}
		},
		{
			"alphaMode":"BLEND",
			"doubleSided":true,
			"extensions":{
				"KHR_materials_specular":{
					"specularColorFactor":[
						0,
						0,
						0
					]
				},
				"KHR_materials_ior":{
					"ior":1.4500000476837158
				}
			},
			"name":"M_Thomas_Sneaker_A_03_Male_Sneaker_02_opencollada_Female_Sn",
			"pbrMetallicRoughness":{
				"baseColorTexture":{
					"index":1
				},
				"metallicFactor":0,
				"roughnessFactor":0.9552786350250244
			}
		},
		{
			"doubleSided":true,
			"extensions":{
				"KHR_materials_specular":{
					"specularColorFactor":[
						0.17785182815030126,
						0.17785182815030126,
						0.17785182815030126
					]
				},
				"KHR_materials_ior":{
					"ior":1.4500000476837158
				}
			},
			"name":"defaultMat1",
			"pbrMetallicRoughness":{
				"baseColorTexture":{
					"index":2
				},
				"metallicFactor":0,
				"roughnessFactor":0.8304027318954468
			}
		},
		{
			"doubleSided":true,
			"extensions":{
				"KHR_materials_specular":{
					"specularColorFactor":[
						0.39127402193066274,
						0.39127402193066274,
						0.39127402193066274
					]
				},
				"KHR_materials_ior":{
					"ior":1.4500000476837158
				}
			},
			"name":"face",
			"pbrMetallicRoughness":{
				"baseColorTexture":{
					"index":3
				},
				"metallicFactor":0,
				"roughnessFactor":0.8062198758125305
			}
		},
		{
			"doubleSided":true,
			"extensions":{
				"KHR_materials_specular":{
					"specularColorFactor":[
						0.39127402193066274,
						0.39127402193066274,
						0.39127402193066274
					]
				},
				"KHR_materials_ior":{
					"ior":1.4500000476837158
				}
			},
			"name":"body2",
			"pbrMetallicRoughness":{
				"baseColorTexture":{
					"index":4
				},
				"metallicFactor":0,
				"roughnessFactor":0.8062198758125305
			}
		},
		{
			"doubleSided":true,
			"extensions":{
				"KHR_materials_specular":{
					"specularColorFactor":[
						0.39127402193066274,
						0.39127402193066274,
						0.39127402193066274
					]
				},
				"KHR_materials_ior":{
					"ior":1.4500000476837158
				}
			},
			"name":"arm",
			"pbrMetallicRoughness":{
				"baseColorTexture":{
					"index":5
				},
				"metallicFactor":0,
				"roughnessFactor":0.8062198758125305
			}
		},
		{
			"doubleSided":true,
			"extensions":{
				"KHR_materials_specular":{
					"specularColorFactor":[
						0.39127402193066274,
						0.39127402193066274,
						0.39127402193066274
					]
				},
				"KHR_materials_ior":{
					"ior":1.4500000476837158
				}
			},
			"name":"leg",
			"pbrMetallicRoughness":{
				"baseColorTexture":{
					"index":6
				},
				"metallicFactor":0,
				"roughnessFactor":0.8062198758125305
			}
		},
		{
			"doubleSided":true,
			"extensions":{
				"KHR_materials_specular":{
					"specularColorFactor":[
						1.32796026974094,
						1.32796026974094,
						1.32796026974094
					]
				},
				"KHR_materials_ior":{
					"ior":1.4500000476837158
				}
			},
			"name":"eye",
			"pbrMetallicRoughness":{
				"baseColorTexture":{
					"index":7
				},
				"metallicFactor":0,
				"roughnessFactor":0.6422290802001953
			}
		},
		{
			"doubleSided":true,
			"extensions":{
				"KHR_materials_specular":{
					"specularColorFactor":[
						0.17785182815030126,
						0.17785182815030126,
						0.17785182815030126
					]
				},
				"KHR_materials_ior":{
					"ior":1.4500000476837158
				}
			},
			"name":"eyelash",
			"pbrMetallicRoughness":{
				"baseColorTexture":{
					"index":8
				},
				"metallicFactor":0,
				"roughnessFactor":0.8304027318954468
			}
		},
		{
			"doubleSided":true,
			"extensions":{
				"KHR_materials_specular":{
					"specularColorFactor":[
						0.17785182815030126,
						0.17785182815030126,
						0.17785182815030126
					]
				},
				"KHR_materials_ior":{
					"ior":1.4500000476837158
				}
			},
			"name":"toothSG1",
			"pbrMetallicRoughness":{
				"baseColorTexture":{
					"index":9
				},
				"metallicFactor":0,
				"roughnessFactor":0.8304027318954468
			}
		}
	],
	"meshes":[
		{
			"name":"men-model",
			"primitives":[
				{
					"attributes":{
						"POSITION":0,
						"TEXCOORD_0":1,
						"NORMAL":2
					},
					"indices":3,
					"material":0
				},
				{
					"attributes":{
						"POSITION":4,
						"TEXCOORD_0":5,
						"NORMAL":6
					},
					"indices":7,
					"material":1
				},
				{
					"attributes":{
						"POSITION":8,
						"TEXCOORD_0":9,
						"NORMAL":10
					},
					"indices":11,
					"material":2
				},
				{
					"attributes":{
						"POSITION":12,
						"TEXCOORD_0":13,
						"NORMAL":14
					},
					"indices":15,
					"material":3
				},
				{
					"attributes":{
						"POSITION":16,
						"TEXCOORD_0":17,
						"NORMAL":18
					},
					"indices":19,
					"material":4
				},
				{
					"attributes":{
						"POSITION":20,
						"TEXCOORD_0":21,
						"NORMAL":22
					},
					"indices":23,
					"material":5
				},
				{
					"attributes":{
						"POSITION":24,
						"TEXCOORD_0":25,
						"NORMAL":26
					},
					"indices":27,
					"material":6
				},
				{
					"attributes":{
						"POSITION":28,
						"TEXCOORD_0":29,
						"NORMAL":30
					},
					"indices":31,
					"material":7
				},
				{
					"attributes":{
						"POSITION":32,
						"TEXCOORD_0":33,
						"NORMAL":34
					},
					"indices":35,
					"material":8
				},
				{
					"attributes":{
						"POSITION":36,
						"TEXCOORD_0":37,
						"NORMAL":38
					},
					"indices":39,
					"material":9
				}
			]
		}
	],
	"textures":[
		{
			"sampler":0,
			"source":0
		},
		{
			"sampler":0,
			"source":1
		},
		{
			"sampler":0,
			"source":2
		},
		{
			"sampler":0,
			"source":3
		},
		{
			"sampler":0,
			"source":4
		},
		{
			"sampler":0,
			"source":5
		},
		{
			"sampler":0,
			"source":6
		},
		{
			"sampler":0,
			"source":7
		},
		{
			"sampler":0,
			"source":8
		},
		{
			"sampler":0,
			"source":9
		}
	],
	"images":[
		{
			"mimeType":"image/jpeg",
			"name":"Male_Sneaker_01",
			"uri":"Male_Sneaker_01.jpg"
		},
		{
			"mimeType":"image/png",
			"name":"transparency",
			"uri":"transparency.png"
		},
		{
			"mimeType":"image/jpeg",
			"name":"hair",
			"uri":"hair.jpg"
		},
		{
			"mimeType":"image/jpeg",
			"name":"face",
			"uri":"face.jpg"
		},
		{
			"mimeType":"image/jpeg",
			"name":"body_Covered",
			"uri":"body_Covered.jpg"
		},
		{
			"mimeType":"image/jpeg",
			"name":"arm",
			"uri":"arm.jpg"
		},
		{
			"mimeType":"image/jpeg",
			"name":"leg",
			"uri":"leg.jpg"
		},
		{
			"mimeType":"image/jpeg",
			"name":"eye",
			"uri":"eye.jpg"
		},
		{
			"mimeType":"image/jpeg",
			"name":"eyelash",
			"uri":"eyelash.jpg"
		},
		{
			"mimeType":"image/jpeg",
			"name":"tooth",
			"uri":"tooth.jpg"
		}
	],
	"accessors":[
		{
			"bufferView":0,
			"componentType":5126,
			"count":9824,
			"max":[
				188.48345947265625,
				209.55258178710938,
				-0.036740999668836594
			],
			"min":[
				-188.77772521972656,
				-91.4065933227539,
				-133.0070343017578
			],
			"type":"VEC3"
		},
		{
			"bufferView":1,
			"componentType":5126,
			"count":9824,
			"type":"VEC2"
		},
		{
			"bufferView":2,
			"componentType":5126,
			"count":9824,
			"type":"VEC3"
		},
		{
			"bufferView":3,
			"componentType":5123,
			"count":54888,
			"type":"SCALAR"
		},
		{
			"bufferView":4,
			"componentType":5126,
			"count":1080,
			"max":[
				164.98329162597656,
				141.6287078857422,
				-47.8125
			],
			"min":[
				-165.30905151367188,
				-84.32374572753906,
				-139.4588623046875
			],
			"type":"VEC3"
		},
		{
			"bufferView":5,
			"componentType":5126,
			"count":1080,
			"type":"VEC2"
		},
		{
			"bufferView":6,
			"componentType":5126,
			"count":1080,
			"type":"VEC3"
		},
		{
			"bufferView":7,
			"componentType":5123,
			"count":3042,
			"type":"SCALAR"
		},
		{
			"bufferView":8,
			"componentType":5126,
			"count":3833,
			"max":[
				77.24252319335938,
				94.75607299804688,
				-1717.4415283203125
			],
			"min":[
				-81.3503189086914,
				-86.39556121826172,
				-1924.4908447265625
			],
			"type":"VEC3"
		},
		{
			"bufferView":9,
			"componentType":5126,
			"count":3833,
			"type":"VEC2"
		},
		{
			"bufferView":10,
			"componentType":5126,
			"count":3833,
			"type":"VEC3"
		},
		{
			"bufferView":11,
			"componentType":5123,
			"count":22026,
			"type":"SCALAR"
		},
		{
			"bufferView":12,
			"componentType":5126,
			"count":7954,
			"max":[
				89.3139419555664,
				122.81820678710938,
				-1664.9541015625
			],
			"min":[
				-89.59178161621094,
				-80.58206176757812,
				-1909.7198486328125
			],
			"type":"VEC3"
		},
		{
			"bufferView":13,
			"componentType":5126,
			"count":7954,
			"type":"VEC2"
		},
		{
			"bufferView":14,
			"componentType":5126,
			"count":7954,
			"type":"VEC3"
		},
		{
			"bufferView":15,
			"componentType":5123,
			"count":46560,
			"type":"SCALAR"
		},
		{
			"bufferView":16,
			"componentType":5126,
			"count":8889,
			"max":[
				227.92198181152344,
				128.37606811523438,
				-819.5093994140625
			],
			"min":[
				-228.19976806640625,
				-128.334716796875,
				-1729.708984375
			],
			"type":"VEC3"
		},
		{
			"bufferView":17,
			"componentType":5126,
			"count":8889,
			"type":"VEC2"
		},
		{
			"bufferView":18,
			"componentType":5126,
			"count":8889,
			"type":"VEC3"
		},
		{
			"bufferView":19,
			"componentType":5123,
			"count":51510,
			"type":"SCALAR"
		},
		{
			"bufferView":20,
			"componentType":5126,
			"count":9056,
			"max":[
				680.5276489257812,
				132.29147338867188,
				-973.6455688476562
			],
			"min":[
				-680.8045654296875,
				-96.09928894042969,
				-1581.5726318359375
			],
			"type":"VEC3"
		},
		{
			"bufferView":21,
			"componentType":5126,
			"count":9056,
			"type":"VEC2"
		},
		{
			"bufferView":22,
			"componentType":5126,
			"count":9056,
			"type":"VEC3"
		},
		{
			"bufferView":23,
			"componentType":5123,
			"count":50820,
			"type":"SCALAR"
		},
		{
			"bufferView":24,
			"componentType":5126,
			"count":11400,
			"max":[
				177.35337829589844,
				191.4772186279297,
				-13.445131301879883
			],
			"min":[
				-177.6306915283203,
				-90.96043395996094,
				-883.165771484375
			],
			"type":"VEC3"
		},
		{
			"bufferView":25,
			"componentType":5126,
			"count":11400,
			"type":"VEC2"
		},
		{
			"bufferView":26,
			"componentType":5126,
			"count":11400,
			"type":"VEC3"
		},
		{
			"bufferView":27,
			"componentType":5123,
			"count":65340,
			"type":"SCALAR"
		},
		{
			"bufferView":28,
			"componentType":5126,
			"count":596,
			"max":[
				46.93080520629883,
				85.83544158935547,
				-1788.048095703125
			],
			"min":[
				-47.20868682861328,
				53.992759704589844,
				-1818.86279296875
			],
			"type":"VEC3"
		},
		{
			"bufferView":29,
			"componentType":5126,
			"count":596,
			"type":"VEC2"
		},
		{
			"bufferView":30,
			"componentType":5126,
			"count":596,
			"type":"VEC3"
		},
		{
			"bufferView":31,
			"componentType":5123,
			"count":3552,
			"type":"SCALAR"
		},
		{
			"bufferView":32,
			"componentType":5126,
			"count":3580,
			"max":[
				48.576072692871094,
				92.7684326171875,
				-1794.6800537109375
			],
			"min":[
				-48.85395812988281,
				75.94355010986328,
				-1810.061279296875
			],
			"type":"VEC3"
		},
		{
			"bufferView":33,
			"componentType":5126,
			"count":3580,
			"type":"VEC2"
		},
		{
			"bufferView":34,
			"componentType":5126,
			"count":3580,
			"type":"VEC3"
		},
		{
			"bufferView":35,
			"componentType":5123,
			"count":8592,
			"type":"SCALAR"
		},
		{
			"bufferView":36,
			"componentType":5126,
			"count":5460,
			"max":[
				38.567955017089844,
				100.09208679199219,
				-1712.2923583984375
			],
			"min":[
				-38.84571838378906,
				18.865015029907227,
				-1759.7855224609375
			],
			"type":"VEC3"
		},
		{
			"bufferView":37,
			"componentType":5126,
			"count":5460,
			"type":"VEC2"
		},
		{
			"bufferView":38,
			"componentType":5126,
			"count":5460,
			"type":"VEC3"
		},
		{
			"bufferView":39,
			"componentType":5123,
			"count":27180,
			"type":"SCALAR"
		}
	],
	"bufferViews":[
		{
			"buffer":0,
			"byteLength":117888,
			"byteOffset":0,
			"target":34962
		},
		{
			"buffer":0,
			"byteLength":78592,
			"byteOffset":117888,
			"target":34962
		},
		{
			"buffer":0,
			"byteLength":117888,
			"byteOffset":196480,
			"target":34962
		},
		{
			"buffer":0,
			"byteLength":109776,
			"byteOffset":314368,
			"target":34963
		},
		{
			"buffer":0,
			"byteLength":12960,
			"byteOffset":424144,
			"target":34962
		},
		{
			"buffer":0,
			"byteLength":8640,
			"byteOffset":437104,
			"target":34962
		},
		{
			"buffer":0,
			"byteLength":12960,
			"byteOffset":445744,
			"target":34962
		},
		{
			"buffer":0,
			"byteLength":6084,
			"byteOffset":458704,
			"target":34963
		},
		{
			"buffer":0,
			"byteLength":45996,
			"byteOffset":464788,
			"target":34962
		},
		{
			"buffer":0,
			"byteLength":30664,
			"byteOffset":510784,
			"target":34962
		},
		{
			"buffer":0,
			"byteLength":45996,
			"byteOffset":541448,
			"target":34962
		},
		{
			"buffer":0,
			"byteLength":44052,
			"byteOffset":587444,
			"target":34963
		},
		{
			"buffer":0,
			"byteLength":95448,
			"byteOffset":631496,
			"target":34962
		},
		{
			"buffer":0,
			"byteLength":63632,
			"byteOffset":726944,
			"target":34962
		},
		{
			"buffer":0,
			"byteLength":95448,
			"byteOffset":790576,
			"target":34962
		},
		{
			"buffer":0,
			"byteLength":93120,
			"byteOffset":886024,
			"target":34963
		},
		{
			"buffer":0,
			"byteLength":106668,
			"byteOffset":979144,
			"target":34962
		},
		{
			"buffer":0,
			"byteLength":71112,
			"byteOffset":1085812,
			"target":34962
		},
		{
			"buffer":0,
			"byteLength":106668,
			"byteOffset":1156924,
			"target":34962
		},
		{
			"buffer":0,
			"byteLength":103020,
			"byteOffset":1263592,
			"target":34963
		},
		{
			"buffer":0,
			"byteLength":108672,
			"byteOffset":1366612,
			"target":34962
		},
		{
			"buffer":0,
			"byteLength":72448,
			"byteOffset":1475284,
			"target":34962
		},
		{
			"buffer":0,
			"byteLength":108672,
			"byteOffset":1547732,
			"target":34962
		},
		{
			"buffer":0,
			"byteLength":101640,
			"byteOffset":1656404,
			"target":34963
		},
		{
			"buffer":0,
			"byteLength":136800,
			"byteOffset":1758044,
			"target":34962
		},
		{
			"buffer":0,
			"byteLength":91200,
			"byteOffset":1894844,
			"target":34962
		},
		{
			"buffer":0,
			"byteLength":136800,
			"byteOffset":1986044,
			"target":34962
		},
		{
			"buffer":0,
			"byteLength":130680,
			"byteOffset":2122844,
			"target":34963
		},
		{
			"buffer":0,
			"byteLength":7152,
			"byteOffset":2253524,
			"target":34962
		},
		{
			"buffer":0,
			"byteLength":4768,
			"byteOffset":2260676,
			"target":34962
		},
		{
			"buffer":0,
			"byteLength":7152,
			"byteOffset":2265444,
			"target":34962
		},
		{
			"buffer":0,
			"byteLength":7104,
			"byteOffset":2272596,
			"target":34963
		},
		{
			"buffer":0,
			"byteLength":42960,
			"byteOffset":2279700,
			"target":34962
		},
		{
			"buffer":0,
			"byteLength":28640,
			"byteOffset":2322660,
			"target":34962
		},
		{
			"buffer":0,
			"byteLength":42960,
			"byteOffset":2351300,
			"target":34962
		},
		{
			"buffer":0,
			"byteLength":17184,
			"byteOffset":2394260,
			"target":34963
		},
		{
			"buffer":0,
			"byteLength":65520,
			"byteOffset":2411444,
			"target":34962
		},
		{
			"buffer":0,
			"byteLength":43680,
			"byteOffset":2476964,
			"target":34962
		},
		{
			"buffer":0,
			"byteLength":65520,
			"byteOffset":2520644,
			"target":34962
		},
		{
			"buffer":0,
			"byteLength":54360,
			"byteOffset":2586164,
			"target":34963
		}
	],
	"samplers":[
		{
			"magFilter":9729,
			"minFilter":9987
		}
	],
	"buffers":[
		{
			"byteLength":2640524,
			"uri":"menModel.bin"
		}
	]
}
