{
	"asset":{
		"generator":"Khronos glTF Blender I/O v3.5.30",
		"version":"2.0"
	},
	"extensionsUsed":[
		"KHR_materials_specular",
		"KHR_materials_ior"
	],
	"scene":0,
	"scenes":[
		{
			"name":"Scene",
			"nodes":[
				0
			]
		}
	],
	"nodes":[
		{
			"mesh":0,
			"name":"\u0440\u0443\u043a\u043e\u0432\u0430 \u0431\u0435\u0437 \u043c\u0430\u043d\u0436\u0435\u0442\u0430",
			"rotation":[
				0.5097140669822693,
				0.4900934100151062,
				-0.4900933802127838,
				0.5097141265869141
			],
			"scale":[
				0.0012521649478003383,
				0.0012521649478003383,
				0.0012521649478003383
			]
		}
	],
	"materials":[
		{
			"doubleSided":true,
			"extensions":{
				"KHR_materials_specular":{
					"specularColorFactor":[
						0.17785182815030126,
						0.17785182815030126,
						0.17785182815030126
					]
				},
				"KHR_materials_ior":{
					"ior":1.4500000476837158
				}
			},
			"name":"FABRIC_1_FRONT_2707.001",
			"pbrMetallicRoughness":{
				"metallicFactor":0,
				"roughnessFactor":0.8304027318954468
			}
		}
	],
	"meshes":[
		{
			"name":"\u0440\u0443\u043a\u043e\u0432\u0430 \u0431\u0435\u0437 \u043c\u0430\u043d\u0436\u0435\u0442\u0430",
			"primitives":[
				{
					"attributes":{
						"POSITION":0,
						"TEXCOORD_0":1,
						"NORMAL":2
					},
					"indices":3,
					"material":0
				}
			]
		}
	],
	"accessors":[
		{
			"bufferView":0,
			"componentType":5126,
			"count":1601,
			"max":[
				510.92779541015625,
				32.62915802001953,
				-1087.9122314453125
			],
			"min":[
				-532.0835571289062,
				-110.76329803466797,
				-1571.389404296875
			],
			"type":"VEC3"
		},
		{
			"bufferView":1,
			"componentType":5126,
			"count":1601,
			"type":"VEC2"
		},
		{
			"bufferView":2,
			"componentType":5126,
			"count":1601,
			"type":"VEC3"
		},
		{
			"bufferView":3,
			"componentType":5123,
			"count":9102,
			"type":"SCALAR"
		}
	],
	"bufferViews":[
		{
			"buffer":0,
			"byteLength":19212,
			"byteOffset":0,
			"target":34962
		},
		{
			"buffer":0,
			"byteLength":12808,
			"byteOffset":19212,
			"target":34962
		},
		{
			"buffer":0,
			"byteLength":19212,
			"byteOffset":32020,
			"target":34962
		},
		{
			"buffer":0,
			"byteLength":18204,
			"byteOffset":51232,
			"target":34963
		}
	],
	"buffers":[
		{
			"byteLength":69436,
			"uri":"%D1%80%D1%83%D0%BA%D0%BE%D0%B2%D0%B0%20%D0%B1%D0%B5%D0%B7%20%D0%BC%D0%B0%D0%BD%D0%B6%D0%B5%D1%82%D0%B01.bin"
		}
	]
}
