{
	"asset":{
		"generator":"Khronos glTF Blender I/O v3.5.30",
		"version":"2.0"
	},
	"extensionsUsed":[
		"KHR_materials_specular",
		"KHR_materials_ior"
	],
	"scene":0,
	"scenes":[
		{
			"name":"Scene",
			"nodes":[
				0
			]
		}
	],
	"nodes":[
		{
			"mesh":0,
			"name":"rukovasman2",
			"rotation":[
				0.7071068286895752,
				0,
				0,
				0.7071068286895752
			],
			"scale":[
				0.00134359544608742,
				0.00134359544608742,
				0.00134359544608742
			]
		}
	],
	"materials":[
		{
			"doubleSided":true,
			"extensions":{
				"KHR_materials_specular":{
					"specularColorFactor":[
						0.17785182815030126,
						0.17785182815030126,
						0.17785182815030126
					]
				},
				"KHR_materials_ior":{
					"ior":1.4500000476837158
				}
			},
			"name":"FABRIC_1_FRONT_2707.006",
			"normalTexture":{
				"index":0,
				"scale":0
			},
			"pbrMetallicRoughness":{
				"baseColorTexture":{
					"index":1
				},
				"metallicFactor":0,
				"roughnessFactor":0.8304027318954468
			}
		}
	],
	"meshes":[
		{
			"name":"rukovasman2",
			"primitives":[
				{
					"attributes":{
						"POSITION":0,
						"TEXCOORD_0":1,
						"NORMAL":2
					},
					"indices":3,
					"material":0
				}
			]
		}
	],
	"textures":[
		{
			"sampler":0,
			"source":0
		},
		{
			"sampler":0,
			"source":1
		}
	],
	"images":[
		{
			"mimeType":"image/png",
			"name":"rukovasman2_normal_1001",
			"uri":"rukovasman2_normal_1001.png"
		},
		{
			"mimeType":"image/png",
			"name":"rukovasman2_diffuse_1001",
			"uri":"rukovasman2_diffuse_1001.png"
		}
	],
	"accessors":[
		{
			"bufferView":0,
			"componentType":5126,
			"count":1514,
			"max":[
				516.0767211914062,
				31.229143142700195,
				-1134.6878662109375
			],
			"min":[
				-519.2129516601562,
				-115.22652435302734,
				-1568.8963623046875
			],
			"type":"VEC3"
		},
		{
			"bufferView":1,
			"componentType":5126,
			"count":1514,
			"type":"VEC2"
		},
		{
			"bufferView":2,
			"componentType":5126,
			"count":1514,
			"type":"VEC3"
		},
		{
			"bufferView":3,
			"componentType":5123,
			"count":8430,
			"type":"SCALAR"
		}
	],
	"bufferViews":[
		{
			"buffer":0,
			"byteLength":18168,
			"byteOffset":0,
			"target":34962
		},
		{
			"buffer":0,
			"byteLength":12112,
			"byteOffset":18168,
			"target":34962
		},
		{
			"buffer":0,
			"byteLength":18168,
			"byteOffset":30280,
			"target":34962
		},
		{
			"buffer":0,
			"byteLength":16860,
			"byteOffset":48448,
			"target":34963
		}
	],
	"samplers":[
		{
			"magFilter":9729,
			"minFilter":9987
		}
	],
	"buffers":[
		{
			"byteLength":65308,
			"uri":"rukovasman2.bin"
		}
	]
}
