{
	"asset":{
		"generator":"Khronos glTF Blender I/O v3.5.30",
		"version":"2.0"
	},
	"extensionsUsed":[
		"KHR_materials_specular",
		"KHR_materials_ior"
	],
	"scene":0,
	"scenes":[
		{
			"name":"Scene",
			"nodes":[
				0
			]
		}
	],
	"nodes":[
		{
			"mesh":0,
			"name":"rukovabez",
			"rotation":[
				0.7071068286895752,
				0,
				0,
				0.7071068286895752
			],
			"scale":[
				0.0010242486605420709,
				0.0010242486605420709,
				0.0010242486605420709
			]
		}
	],
	"materials":[
		{
			"doubleSided":true,
			"extensions":{
				"KHR_materials_specular":{
					"specularColorFactor":[
						0.17785182815030126,
						0.17785182815030126,
						0.17785182815030126
					]
				},
				"KHR_materials_ior":{
					"ior":1.4500000476837158
				}
			},
			"name":"FABRIC_1_FRONT_2707.002",
			"normalTexture":{
				"index":0,
				"scale":0
			},
			"pbrMetallicRoughness":{
				"baseColorTexture":{
					"index":1
				},
				"metallicFactor":0,
				"roughnessFactor":0.8304027318954468
			}
		}
	],
	"meshes":[
		{
			"name":"rukovabez",
			"primitives":[
				{
					"attributes":{
						"POSITION":0,
						"TEXCOORD_0":1,
						"NORMAL":2
					},
					"indices":3,
					"material":0
				}
			]
		}
	],
	"textures":[
		{
			"sampler":0,
			"source":0
		},
		{
			"sampler":0,
			"source":1
		}
	],
	"images":[
		{
			"mimeType":"image/png",
			"name":"rukovabez_normal_1001",
			"uri":"rukovabez_normal_1001.png"
		},
		{
			"mimeType":"image/png",
			"name":"rukovabez_diffuse_1001",
			"uri":"rukovabez_diffuse_1001.png"
		}
	],
	"accessors":[
		{
			"bufferView":0,
			"componentType":5126,
			"count":1601,
			"max":[
				510.9277648925781,
				32.62915802001953,
				-1087.90869140625
			],
			"min":[
				-532.0835571289062,
				-110.76329803466797,
				-1571.389404296875
			],
			"type":"VEC3"
		},
		{
			"bufferView":1,
			"componentType":5126,
			"count":1601,
			"type":"VEC2"
		},
		{
			"bufferView":2,
			"componentType":5126,
			"count":1601,
			"type":"VEC3"
		},
		{
			"bufferView":3,
			"componentType":5123,
			"count":9102,
			"type":"SCALAR"
		}
	],
	"bufferViews":[
		{
			"buffer":0,
			"byteLength":19212,
			"byteOffset":0,
			"target":34962
		},
		{
			"buffer":0,
			"byteLength":12808,
			"byteOffset":19212,
			"target":34962
		},
		{
			"buffer":0,
			"byteLength":19212,
			"byteOffset":32020,
			"target":34962
		},
		{
			"buffer":0,
			"byteLength":18204,
			"byteOffset":51232,
			"target":34963
		}
	],
	"samplers":[
		{
			"magFilter":9729,
			"minFilter":9987
		}
	],
	"buffers":[
		{
			"byteLength":69436,
			"uri":"rukovabez.bin"
		}
	]
}
