{
	"asset":{
		"generator":"Khronos glTF Blender I/O v3.5.30",
		"version":"2.0"
	},
	"extensionsUsed":[
		"KHR_materials_specular",
		"KHR_materials_ior"
	],
	"scene":0,
	"scenes":[
		{
			"name":"Scene",
			"nodes":[
				0
			]
		}
	],
	"nodes":[
		{
			"mesh":0,
			"name":"maika1",
			"rotation":[
				0.7071068286895752,
				0,
				0,
				0.7071068286895752
			],
			"scale":[
				0.005184688605368137,
				0.005184688605368137,
				0.005184688605368137
			]
		}
	],
	"materials":[
		{
			"doubleSided":true,
			"extensions":{
				"KHR_materials_specular":{
					"specularColorFactor":[
						0.17785182815030126,
						0.17785182815030126,
						0.17785182815030126
					]
				},
				"KHR_materials_ior":{
					"ior":1.4500000476837158
				}
			},
			"name":"FABRIC_1_FRONT_2707",
			"normalTexture":{
				"index":0,
				"scale":0
			},
			"pbrMetallicRoughness":{
				"baseColorTexture":{
					"index":1
				},
				"metallicFactor":0,
				"roughnessFactor":0.8304027318954468
			}
		}
	],
	"meshes":[
		{
			"name":"maika1",
			"primitives":[
				{
					"attributes":{
						"POSITION":0,
						"TEXCOORD_0":1,
						"NORMAL":2
					},
					"indices":3,
					"material":0
				}
			]
		}
	],
	"textures":[
		{
			"sampler":0,
			"source":0
		},
		{
			"sampler":0,
			"source":1
		}
	],
	"images":[
		{
			"mimeType":"image/png",
			"name":"maika1_normal_1001",
			"uri":"maika1_normal_1001.png"
		},
		{
			"mimeType":"image/png",
			"name":"maika1_diffuse_1001",
			"uri":"maika1_diffuse_1001.png"
		}
	],
	"accessors":[
		{
			"bufferView":0,
			"componentType":5126,
			"count":2717,
			"max":[
				193.27572631835938,
				128.14183044433594,
				-969.7374877929688
			],
			"min":[
				-215.62583923339844,
				-146.0946044921875,
				-1612.3330078125
			],
			"type":"VEC3"
		},
		{
			"bufferView":1,
			"componentType":5126,
			"count":2717,
			"type":"VEC2"
		},
		{
			"bufferView":2,
			"componentType":5126,
			"count":2717,
			"type":"VEC3"
		},
		{
			"bufferView":3,
			"componentType":5123,
			"count":15576,
			"type":"SCALAR"
		}
	],
	"bufferViews":[
		{
			"buffer":0,
			"byteLength":32604,
			"byteOffset":0,
			"target":34962
		},
		{
			"buffer":0,
			"byteLength":21736,
			"byteOffset":32604,
			"target":34962
		},
		{
			"buffer":0,
			"byteLength":32604,
			"byteOffset":54340,
			"target":34962
		},
		{
			"buffer":0,
			"byteLength":31152,
			"byteOffset":86944,
			"target":34963
		}
	],
	"samplers":[
		{
			"magFilter":9729,
			"minFilter":9987
		}
	],
	"buffers":[
		{
			"byteLength":118096,
			"uri":"maika1.bin"
		}
	]
}
