{
	"asset":{
		"generator":"Khronos glTF Blender I/O v3.5.30",
		"version":"2.0"
	},
	"extensionsUsed":[
		"KHR_materials_specular",
		"KHR_materials_ior"
	],
	"scene":0,
	"scenes":[
		{
			"name":"Scene",
			"nodes":[
				0
			]
		}
	],
	"nodes":[
		{
			"mesh":0,
			"name":"rukovabezmanjet",
			"rotation":[
				0.7071067690849304,
				0,
				0,
				0.7071068286895752
			],
			"scale":[
				0.0007031976128928363,
				0.0007031976128928363,
				0.0007031976128928363
			]
		}
	],
	"materials":[
		{
			"doubleSided":true,
			"extensions":{
				"KHR_materials_specular":{
					"specularColorFactor":[
						0.17785182815030126,
						0.17785182815030126,
						0.17785182815030126
					]
				},
				"KHR_materials_ior":{
					"ior":1.4500000476837158
				}
			},
			"name":"FABRIC_1_FRONT_2707.014",
			"normalTexture":{
				"index":0,
				"scale":0
			},
			"pbrMetallicRoughness":{
				"baseColorTexture":{
					"index":1
				},
				"metallicFactor":0,
				"roughnessFactor":0.8304027318954468
			}
		}
	],
	"meshes":[
		{
			"name":"rukovabezmanjet",
			"primitives":[
				{
					"attributes":{
						"POSITION":0,
						"TEXCOORD_0":1,
						"NORMAL":2
					},
					"indices":3,
					"material":0
				}
			]
		}
	],
	"textures":[
		{
			"sampler":0,
			"source":0
		},
		{
			"sampler":0,
			"source":1
		}
	],
	"images":[
		{
			"mimeType":"image/png",
			"name":"rukovabezmanjet_normal_1001",
			"uri":"rukovabezmanjet_normal_1001.png"
		},
		{
			"mimeType":"image/png",
			"name":"rukovabezmanjet_diffuse_1001",
			"uri":"rukovabezmanjet_diffuse_1001.png"
		}
	],
	"accessors":[
		{
			"bufferView":0,
			"componentType":5126,
			"count":1579,
			"max":[
				525.5524291992188,
				32.09828567504883,
				-1100.0582275390625
			],
			"min":[
				-529.616943359375,
				-108.86265563964844,
				-1566.200927734375
			],
			"type":"VEC3"
		},
		{
			"bufferView":1,
			"componentType":5126,
			"count":1579,
			"type":"VEC2"
		},
		{
			"bufferView":2,
			"componentType":5126,
			"count":1579,
			"type":"VEC3"
		},
		{
			"bufferView":3,
			"componentType":5123,
			"count":8970,
			"type":"SCALAR"
		}
	],
	"bufferViews":[
		{
			"buffer":0,
			"byteLength":18948,
			"byteOffset":0,
			"target":34962
		},
		{
			"buffer":0,
			"byteLength":12632,
			"byteOffset":18948,
			"target":34962
		},
		{
			"buffer":0,
			"byteLength":18948,
			"byteOffset":31580,
			"target":34962
		},
		{
			"buffer":0,
			"byteLength":17940,
			"byteOffset":50528,
			"target":34963
		}
	],
	"samplers":[
		{
			"magFilter":9729,
			"minFilter":9987
		}
	],
	"buffers":[
		{
			"byteLength":68468,
			"uri":"rukovabezmanjet.bin"
		}
	]
}
